<svg xmlns="http://www.w3.org/2000/svg" viewBox="0 0 274 274"><defs><style>.cls-1{isolation:isolate;}.cls-2{fill:#ffffff;}</style></defs><title>Asset 1</title><g id="Layer_2" data-name="Layer 2"><g id="Shape_12_copy" data-name="Shape 12 copy" class="cls-1"><g id="Shape_12_copy-2" data-name="Shape 12 copy"><path class="cls-2" d="M137.5,20.66h0L82,52.91h0v57.37L35,138.44h0v61.48L92.15,233h0l45.41-28.18,45.84,27.5,0,0,0,0,55.57-33h0V137.84l-47.53-28.36V51.66l-54-31Zm-.88,55.8L99.09,55,137.9,32.43l37.8,21.7L136.62,76.46ZM142,130.11V84.9L182,62V105.8l-40,24.31Zm-10,.52L92,106.27V62.45l40,22.9v45.28Zm54.2,31.77-40.95-22.56,37.85-23,39.27,23.43L186.2,162.4ZM87.81,163,51.72,140.83l39.21-23.49,37.82,23L87.81,163ZM190,216.86V171.8l39-23.88v45.8l-39,23.14Zm-106-.17L45,194.13V148.46l39,23.92v44.31Zm96,1.89-38-22.8V149.46l38,20.94v48.18Zm-86,1.57V171l38-21v46.55L94,220.15Z"/></g></g><g id="Ellipse_1" data-name="Ellipse 1" class="cls-1"><g id="Ellipse_1-2" data-name="Ellipse 1"><path class="cls-2" d="M137,10a127,127,0,0,1,89.8,216.8A127,127,0,1,1,47.2,47.2,126.15,126.15,0,0,1,137,10m0-10A137,137,0,1,0,274,137,137,137,0,0,0,137,0Z"/></g></g></g></svg>