<?xml version="1.0" encoding="utf-8"?>
<!-- Generator: Adobe Illustrator 22.0.1, SVG Export Plug-In . SVG Version: 6.00 Build 0)  -->
<svg version="1.1" id="Capa_1" xmlns="http://www.w3.org/2000/svg" xmlns:xlink="http://www.w3.org/1999/xlink" x="0px" y="0px"
	 viewBox="0 0 200 200" style="enable-background:new 0 0 200 200;" xml:space="preserve">
<style type="text/css">
	.st0{fill:#2CD48F;}
</style>
<g>
	<path class="st0" d="M100,0C45,0,0.4,44.8,0.4,100S45,200,100,200s99.6-44.8,99.6-100S155,0,100,0z M100,194
		c-51.7,0-93.6-42.1-93.6-94C6.4,48.1,48.3,6,100,6s93.6,42.1,93.6,94C193.6,151.9,151.7,194,100,194z"/>
</g>
<path class="st0" d="M169.8,77.3c2.5,0-1.7-4.3-1.8-4.3C165.4,73,169.7,77.3,169.8,77.3z"/>
<path class="st0" d="M173.5,53.6v0.6c0.7,0.3,4.7-0.1,4.9-2.2C176.8,52,173.5,52.8,173.5,53.6z"/>
<path class="st0" d="M167,44.7c0,0.8,0.3,1,1,0.7c0.5-0.2,3.8-4.1,2.1-4.1c-0.9,0-1.2,0.8-1.7,1.4C168.2,43,167,44.5,167,44.7z"/>
<path class="st0" d="M144.7,77.3c1.3,0,4.7-5.2,2.1-4.1C146.3,73.3,143,77.3,144.7,77.3z"/>
<path class="st0" d="M136.4,53.3c2.7,0.6,3.5,1.7,4.9,0.9c-0.3-1.2-0.4-1-1.6-1.4C137.3,52,136.4,51.4,136.4,53.3z"/>
<path class="st0" d="M144.1,41.9c0,0.9,0.1,0.3,1.3,2.1c0.6,1,0.7,1.5,2.1,1.6c0.3-1.4,0.1-1.1-0.8-2.3c-0.3-0.4-1.4-2-1.7-2
	C144.5,41.3,144.1,41.5,144.1,41.9z"/>
<path class="st0" d="M136.4,66.5c1.2,0.2,2.4-0.2,3.8-0.8c1.3-0.5,0.3,0.3,1.1-0.7c-0.2-0.4-0.2-0.3-0.3-0.9
	c-1.1,0.1-1.6,0.4-2.6,0.7C137,65.2,136.5,65,136.4,66.5z"/>
<path class="st0" d="M173.5,64.3c0.3,1.3,0.7,1.1,1.9,1.5c1.1,0.3,1.6,0.6,3,0.6v-1.2C177.2,65,174,63.4,173.5,64.3z"/>
<path class="st0" d="M156.9,42.2c1.5-0.2,1.2-0.9,1.2-4c0-0.5-0.3-1-0.7-1.1C155.8,36.7,156.7,41.8,156.9,42.2z"/>
<path class="st0" d="M156.6,77.9c0,1.5-0.3,3.3,0.7,3.5c0.7,0.2,0.7-0.2,0.8-1c0.2-1.3,0.1-3.2-0.3-4c-1,0.1-0.4-0.2-0.9,0.3
	C156.6,77,156.6,77.2,156.6,77.9z"/>
<g>
	<path class="st0" d="M157.8,45.7c-6.6-0.5-14,5.7-14,12.8c0,4.6,1,7.8,4.2,10.8c8.4,8.1,23,2.5,23-10.2
		C171,51.9,165.3,46.2,157.8,45.7z M165,67.2c-4.2,4.2-10.9,4.2-15.1,0.2c0,0-0.1-0.1-0.2-0.2l-1-1.1c-1.3-1.6-2.2-3.7-2.2-6.1
		c0-3.5,0.6-6.1,3.4-8.6C161,41.6,174.8,57.4,165,67.2z"/>
</g>
<g>
	<path class="st0" d="M171,134.1l-11-25.8c-2.5-5.9-4.9-11.3-7.3-17.2c-1.3-3-2.4-5.6-3.7-8.6c-0.8-1.9-2-1.5-4.3-1.8l-16.7-2
		c-3.8-0.5-7.2-0.7-11.1-1.2l-33.1-3.6c-3.6-0.3-7.4-1-11-1.2c-3.6-0.2-7.4-0.9-11-1.2c-2.4-0.2-3.2-0.7-4.9,0.6
		c-1.2,0.7-3.4,1.9-3.4,3c0,1.5,0.5,2.2,1,3.3l6.3,15.2c0.4,1.1,0.8,1.9,1.3,3c0.4,1,1.1,2.3,1.2,3.4l-10.7-1.2
		c-3.6-0.3-7.4-1-11-1.2L25,95.7c-0.8,0.1-3.4,1.7-3.4,2.7c0,0.9,2.6,6.9,3.1,8c0.6,1.3,1,2.5,1.6,3.9l13.1,31.4
		c0.7,1.8,1.5,1.6,4,1.6c7.4-0.1,14.9,0,22.3,0c1.1,4.8,2.8,2.8-6.1,8.7c-0.9,0.6-1.9,0.9-2.2,2.1c0.9,1.3,1.6,0.8,3.5,0.5
		c8.2-1.3,13.9-1.9,22.1-3.6c1.4-0.3,2.8-0.6,4.3-0.9c1.9-0.4,3,0,3.1-2.1c-1.9-0.5-4.8-0.3-6.8-0.5c-6.4-0.9-6.3,2.3-6.3-4.1h4.3
		c0.6,2.3,4.6,1.5,8.9,1.5c10.4,0,20.8,0,31.2,0c0.4,0.9,1.7,5.3,1.8,6.5c-1,0.3-6.2,3.9-7.5,4.8c-1.5,1-6.9,3.9-6.9,5.7
		c0,1.9,3.9,0.8,5.7,0.5l20.3-2.9c6.1-0.9,16-3.1,22.8-4.5c1.6-0.3,1.8-0.3,2.6-1.4c-0.3-1.3-0.1-1.7-4-1.8l-11.3-0.4
		c-1.8-0.2-3.3-0.3-5.6-0.3V145h32.8C177,145,172.8,138.3,171,134.1z M77.4,148.9c1,0.5,3.1,0.3,4.6,0.3v0.3c-1.1,0-4,0.6-4.6,0.9
		V148.9z M139.8,153.7h3.1c2,0,2.6,0.3,4.6,0.3v0.3c-1.3,0.1-6.9,1.3-7.7,1.6V153.7z M161.5,121.4c0.4,0.9,0.8,1.9,1.2,2.8l2.5,5.9
		l-15.2-0.7c-2.1-0.4-3.2-2.1-4-4c-0.4-1.1-0.7-1.7-1.2-2.8c-2.2-4.9,4.1-3.2,6.9-3.3c1.8,0,2.2,0.2,3.7,0.3
		C159.5,119.8,160.4,118.7,161.5,121.4z M133.3,104.6c-3.2-0.6-13.9-0.5-16-1.3c-0.5-0.2-2.2-1.4-2.5-1.8l-2.6-6
		c-0.8-1.9-0.7-1.7,0.3-3.2l15.5,1.1c1.4,0.2,1.9,0.5,2.8,1.2c1.4,1,1.1,0.9,1.7,2.6c0.8,2,1.9,3.9,2.4,5.9L133.3,104.6z
		 M136.1,107.3c2.4,1.7,2.3,5.9,4.2,8.1c-0.4,0.6-0.8,1.2-1.2,1.8l-11.4-0.6c-1.9-0.2-6.2,1-8.3-3.9c-0.5-1.1-0.7-1.8-1.2-2.8
		l-1.1-3.1c0.5-0.8,0.7-0.9,1.2-1.8l7.3,0.6c1.8,0,6.3,0.1,7.9,0.4C134.5,106.2,135.4,106.8,136.1,107.3z M113.2,101.5
		c-1.6,2.5-2.4,1.4-7.4,1.2l-8.9-0.6c-5.3,0.1-6.1-3.5-7.4-6.7c-0.5-1.2-0.9-2.3-1.4-3.4c0.6-0.9,0.6-0.4,0.9-1.5
		c2.7,0,5.8,0.2,8,0.5c7.8,1,11.5-0.8,13.6,4.2L113.2,101.5z M90,100.3c-2.6,1.7-1.1,1.5-8.2,0.9c-2.9-0.2-6-0.6-9.2-0.6l-4.3-10.4
		c-0.4-0.5-0.5-1.1-0.7-1.6c2.4,0,5.2,0.6,7.7,0.6c1.8,0,6.2,0.3,7.9,0.7c0.7,0.1,2,1.1,2.7,1.6C87,92.3,89.6,98.8,90,100.3z
		 M74.1,125.2c-6.6,0-8.4,0.5-10-3.2c-0.2-0.6-0.4-1-0.6-1.5l-0.8-1.8c1.1-1.6,1-0.9,3.7-0.9c2.1,0,2.8,0.3,4.9,0.3L74.1,125.2z
		 M70.3,116.9c-6.9,0-8.4,0.2-10-3.5c-0.3-0.7-1-2.1-1-2.4c-0.4-2.5,2.9-1.1,8.2-1.1C68.1,110.9,70.2,115.9,70.3,116.9z M59.9,115.4
		c0,1.7-3.7,0.8-4.6,0.7c-3.1-0.3-6.5,0-8-0.9c-2.1-1.2-3.2-5.9-3.2-5.9c0.2-1.6,3.3-0.8,4.5-0.6c2.4,0.3,6.6,0.2,8.1,0.8
		C58.7,110.2,59.9,115.3,59.9,115.4z M48.3,116.6l10.6,0.7c1.4,0.3,2.4,1.2,3,2.5c0.6,1.3,1.3,2.9,1.6,4.2l-1,0.9
		c-2.9-0.6-7-0.3-10.3-0.5c-3-0.4-3.1-3.3-4.5-6.6C48.2,117.1,48.1,117.5,48.3,116.6z M51.9,125.2c2.1,0,3.2,0.3,5.5,0.3
		c5.7-0.1,7,0,8.3,3.3c1.7,4.2,2.5,3.7-4.6,3.7c-1.9,0-6-0.1-7.1-0.8c-1.5-0.9-1.9-3.6-2.7-5.3C51.8,125.7,51.7,126.1,51.9,125.2z
		 M66,127c1.6-1.1,0.1-0.9,4-0.9c2,0,2.7,0.3,4.6,0.3l2.8,6.8c-3.2,0-7.7,0.2-9.2-1.5C67.5,131,66.9,128.6,66,127z M73.4,102.2
		c1.5,0,2.4,0,3.8,0.2c4.8,0.7,10.7-0.6,14.3,2.3c1.1,0.9,4,8.5,4,8.6c0,3.1-7.6,1.3-11.3,1.2c-5.4-0.1-5.7,0.4-6.8-2.4
		C76.6,110.1,73.6,103.6,73.4,102.2z M95,108.5c-0.5-1-0.7-2.1-1.4-2.9c0.5-0.8,1-1.5,1.5-2.2c2.5,0.2,5.3,0.6,8,0.6
		c2.4,0,6,0.4,8.3,0.6c1.6,0.2,1.9,0.6,3,1.3c1.7,1.2,3.9,7,4.3,8.9l-1.6,1.5c-5.1-0.4-10.8-0.7-16.2-0.8c-2.7,0-3.7-1.8-4.7-3.9
		C95.7,110.5,95.5,109.7,95,108.5z M100.6,116.9c3.1,0,5.2,0.3,8,0.3l8,0.3c1.4,0.1,2,0.4,3,1c1.3,0.8,1.4,1,1.9,2.4
		c2.9,7.4,3.1,5.4,1.6,7.6c-3.1,0-5.3-0.3-8.6-0.3c-1.9,0-2.8-0.2-4.3-0.3c-1.3-0.1-3.4,0.2-4.6,0c-0.8-0.1-0.8-0.3-1.4-0.7
		c-0.3-0.2-1.3-0.9-1.4-1.1c-0.6-0.6-2.5-5.2-2.9-6.3C99.2,118.3,99.9,118,100.6,116.9z M122.6,120c0-1.1,0.5-0.4,0.9-1.8
		c5.1,0,10.2,0.2,15,0.6c1.9,0.1,3.8,1.6,4.4,3.2l2.3,5.7c-1.5,2.2-2.5,1.6-6.7,1.5c-2.1,0-3.9-0.3-8-0.3c-2.3,0-4.5-0.7-5.5-2.8
		C124.8,125.4,122.6,120.3,122.6,120z M160,118.5l-14.7-0.9c-2.5-0.3-3.4-1.8-4.1-3.5c-0.3-0.9-2.3-5.5-2.3-5.8
		c0-0.5,0.7-1.4,0.9-1.8c5.3,0,10.5,0.9,15.6,0.9C156.1,108.7,159.9,117.5,160,118.5z M154.8,105.9l-7.3-0.4c-2.3-0.3-5-0.3-7.4-0.6
		c-1.5-0.2-0.2,0.3-2.6-1.4c-1.8-1.2-2.5-4.4-3.4-6.4c-0.1-0.3-0.2-0.4-0.3-0.6l-0.3-0.6c0,0-0.1-0.1-0.1-0.2
		c0.5-0.8,0.7-0.9,1.2-1.8c3.5,0.1,12.2,1.2,15.6,1.2L154.8,105.9z M137,83.8c2.6,0.3,6,0.8,9,0.8l3.7,8.9c-2.4,0-5.2-0.3-7.4-0.6
		c-3.5-0.4-9.6,0.7-11.6-4.3c-0.3-0.9-0.8-1.9-1.2-2.8c-0.2-0.6-0.4-0.8-0.7-1.5c-0.2-0.3-0.5-1.1-0.6-1.5
		C130.7,83.4,134.1,83.4,137,83.8z M124.8,82.5c2.3,0.2,1.7,0.5,3.7,4.9c0.4,1,0.8,2.1,1.2,3.1l-1.6,1.5l-11.3-0.9
		c-4.7-0.2-3.7-0.3-6.3-2c-2.6-1.6-3.2-5.7-4.4-8.5C109.7,80.6,119.8,82.1,124.8,82.5z M86,78.4l16.4,1.7c2.4,0.2,2.1,0.6,4,5.2
		c0.5,1.2,1,2,1.3,3.3c-1.4,2.1-3.1,1.8-7.8,1.1l-9-0.8c-5-0.2-5.4-3.3-7.2-7.5c-0.3-0.8-0.5-1.1-0.7-1.7c-0.4-0.6-0.5-1.3-0.8-1.8
		C83.4,78.2,84.6,78.2,86,78.4z M62,75.7l9.1,1c1.7,0.2,8.2,0.7,9,1.1c1.1,0.6,1.6,2.9,2.1,4c1,2.2,3.9,6.9-1.2,6.5
		c-1.2-0.1-3.4-0.3-4.8-0.5l-9.7-0.7C66.5,85.9,62.8,77.2,62,75.7z M64.8,102.7c0.1,1,2,5.2,2.4,6.1c-3.1,0-7.3,0-9.4-2
		c-0.5-0.5-0.6-0.8-0.9-1.5l-1.3-3.5C57.9,101.9,61.4,102.7,64.8,102.7z M54.1,101.5c0.7,1.1,0.8,1.3,1.3,2.7
		c0.4,1.1,0.9,1.9,1.1,2.9c-0.7,0.5-0.4,0-0.6,0.9L45,107.2c-1.8-0.4-2.5-1.2-3.1-2.7l-1.6-4.2C43.6,100.3,50.2,101.5,54.1,101.5z
		 M27.2,98.8c3.8,0.3,8,1.2,11.9,1.2c0.3,1.4,1.8,4.6,2.4,5.8l-1,0.9c-3.7,0.1-6.7-0.5-10.3-0.5L27.2,98.8z M30.8,107.1
		c2.1,0,9.7,0.5,11.3,1.6c1.4,0.9,2.8,5.4,2.8,5.5c0,2.1-3.2,0.9-4.9,0.9c-2.5,0-3.7-0.3-6.1-0.3L30.8,107.1z M34.5,115.7
		c1.3,0,1.1,0.2,2.4,0.3c0.9,0,1.9-0.1,2.7,0c0.6,0,4.6,0.4,5,0.5c1.4,0.5,2,1.7,2.5,3c2.4,6,2.5,4.2-9.7,4.2L34.5,115.7z
		 M38.2,124.6c1.3,0,9.3,0.3,9.9,0.5c0.3,0.1,1.3,0.8,1.5,1c0.8,0.7,0.7,0.7,1.1,1.6c0.5,1.2,1,2.6,1.6,3.7c-1.9,1.7-1,0.6-5.8,0.6
		c-1.7,0-3.5,0-5.2,0C40.1,129.7,39.1,126.6,38.2,124.6z M44.6,140.5c-0.1-1-1-2.8-1.4-3.8c-0.6-1.3-1-2.6-1.7-3.8
		c1.8,0,9.5,0.1,10.5,0.5c0.4,0.2,1.3,0.9,1.5,1.2l2.4,5.9H44.6z M57.2,140.6l-1.9-4.6c-0.2-0.4-0.4-1.2-0.6-1.6
		c0.7-0.5,0.4-0.1,0.6-0.9c3.7,0,7.4-0.1,10.7,0.3c1.6,0.2,2.4,1.1,3,2.6c0.6,1.4,1.3,2.9,1.7,4.2H57.2z M62.4,152.6l5.8-4
		c0.1,0,0.1,0,0.2,0.1c0,0.1,0.1,0.1,0.2,0.1c1.4,0.9,1.8,0.9,3.1,1.5c0.7,0.3,0.7,0.3,1.1,0.7C69.5,151.3,65.7,152.3,62.4,152.6z
		 M75.5,150.1c-0.9-0.5-1.7-0.6-2.4-1.2h2.4V150.1z M75.6,147h-1.2c-2.4,0-3.5-0.3-5.8-0.3c-0.3-0.8-0.7-2.7-1-3.4h8V147z
		 M71.8,140.6c-2.1-4-2.4-5-1.2-6.8l7,0.3c1,2,1.7,4.5,2.8,6.5H71.8z M81.2,121.3c-0.8-1.9-1.5-3.8-2.3-5.6l15.3,0.9
		c1.1,0.3,1.7,0.7,2.6,1.4c1.4,1,3.7,6.6,4.1,8.4c-1.7,1.1-0.4,1.3-3.4,1.2c-2,0-3-0.3-4.6-0.3c-1.6,0-3.3,0-4.9,0
		c-1.8,0-2.5-0.3-4.6-0.3C83,125.2,81.9,123,81.2,121.3z M89.3,140.9c-0.3-1.4-0.7-2-1.2-3.1c-0.4-1.1-0.8-2-1.3-3l-1.9-4.6
		c-0.1-0.4-0.3-1.2-0.5-1.6c3,0,5.1,0.3,8.3,0.3c9.1,0,9.6,0.5,11.8,5.7c0.5,1.2,0.8,1.8,1.3,3c0.4,1.1,1.1,2.3,1.3,3.3H89.3z
		 M108.7,140.8c-0.6-1.8-3.8-8.2-3.8-9.1c0-0.5,0.9-1.7,1.2-2.2l16.8,0.7c0.8,0.2,2.1,1,2.8,1.5c0.9,0.8,3.8,8.2,4.1,9.1H108.7z
		 M137,144.9v5.8c-3.9,0-6.7-0.3-10.7-0.3c-0.4-0.9-1.4-4.3-1.5-5.5H137z M116.5,159.3c0.6-0.8,3.3-2.4,4.3-3.1c1.5-1,3.1-2,4.6-3.1
		l5.7,2.6c0.4,0.2,0.7,0.4,1,0.5c0.1,0,0.1,0.1,0.2,0.1c0.1,0,0.1,0.1,0.2,0.1c0.6,0.4,0.2,0.1,0.5,0.4L116.5,159.3z M137.1,155.3
		c-0.8-0.2-1.2-0.4-2-0.7c-0.4-0.2-0.7-0.3-1.1-0.5l-0.9-0.6h4V155.3z M131.3,140.8c-0.5-2-3.2-7.5-3.2-8.3
		c-0.1-1.2,0.9-0.9,1.3-2.4c1.9,0.5,14.1,0.4,15.2,0.7c0.4,0.1,2.1,1.3,2.5,1.5c1,0.8,3.5,7.3,3.8,8.5H131.3z M152.3,140.8
		c-0.1-1.1-1.5-3.9-2-5.1c-1.2-2.9-1.5-2.1,0.2-4.7l13.8,0.5c1.8,0.2,1.5,0,2.1,1.6l3.3,7.7H152.3z"/>
</g>
</svg>
