<?xml version="1.0" encoding="utf-8"?>
<!-- Generator: Adobe Illustrator 22.0.1, SVG Export Plug-In . SVG Version: 6.00 Build 0)  -->
<svg version="1.1" id="Capa_1" xmlns="http://www.w3.org/2000/svg" xmlns:xlink="http://www.w3.org/1999/xlink" x="0px" y="0px"
	 viewBox="0 0 200 200" style="enable-background:new 0 0 200 200;" xml:space="preserve">
<style type="text/css">
	.st0{fill:#2CD48F;}
</style>
<g>
	<path class="st0" d="M100,0C45,0,0.4,44.8,0.4,100S45,200,100,200s99.6-44.8,99.6-100S155,0,100,0z M100,194
		c-51.7,0-93.6-42.1-93.6-94C6.4,48.1,48.3,6,100,6s93.6,42.1,93.6,94C193.6,151.9,151.7,194,100,194z"/>
</g>
<g>
	<path class="st0" d="M117.9,90.6c14.3,0,22.5-7.7,29.6-18.2c5.1-7.7,7.5-17.1,9.7-26c1.2-4.8,0.8-6.2-3-6.6h-12.9
		c-14.8,0-32.1,4.5-40,17.7c-2.4,4.1-4.1,9.6-4.1,15.7c0,11.6,3.9,5.7-1.1,14.9c-2,3.7-4.9,8.9-5.9,13.3c-0.6-0.6-0.1,0-0.7-1.1
		L87.2,96c-1.5-2.5-2.2-2.6-3.9-4.5c-2.4-2.6-0.1-5.5-4-12.9C73.3,67.2,59.5,66,47.1,68c-4.6,0.7-5.7,1.1-4.2,5.3
		c2,5.6,4.1,10.7,7.1,15c5,7.1,12.4,12.3,21.6,10c3.2-0.8,5.4-2.2,7.8-3.5c9.3,6.3,7,23.2,7,30.6c-7.5-4-16.3-2.1-21.5,5.6
		c-3.3-1.6-9.4,1.4-11.5,3c-4.4,3.4-5.3,7.8-5.3,13c0,6.1,7.1,13.2,13.1,13.2h73.6c3.6,0,7.6-2.6,9.5-4.6c0.9-0.9,2.3-3,2.8-4.2
		c2.6-5.9,0.7-12.3-3.2-16.3c-8.1-8.2-16-2.9-18.5-2.2c-0.5-1-0.8-1.9-1.3-2.9c-1.3-2.5-3.5-5.4-5.6-7.1c-8.9-7-18.4-5.1-26.8,0.6
		c0-16.2,5.3-25.7,10.8-36.2C105.7,89.1,112.8,90.6,117.9,90.6z M75.3,91.6c-5.4,1.3-10.7,6.2-20-4.8c-2.2-2.6-5.2-8.7-6.5-11.9
		c-0.5-1.3-2.9-2.6,7.3-2.6c11.8,0,18.3,4.4,20.6,14.1c-1.9-1-16.4-8.7-16.4-1.9C60.3,88.1,70,87,75.3,91.6z M92.6,130.2
		c4.4-7,16.1-9.3,23.3-2.4l1.1,1.2c1.3,1.5,2.5,3.2,3.2,5.3c1.3,4.2,0,5.2,2.7,6.2c0.1,0,0.2,0,0.2,0l2.4-0.7c1-0.6,1.3-1.3,2.2-2.1
		c9.3-7.9,23,8.6,10.1,16.3c-1.1,0.7-1.8,1-3.6,1H62.1c-7.5,0-11.2-9-7.5-14.6c3.9-6,8-4.2,12.2-4.2c3,0,2-7.5,12.6-7.5
		c6.2,0,5.7,4.7,10.3,4.7C91.3,133.4,91.8,131.4,92.6,130.2z M140.8,45H152c-0.2,6.9-5.8,20-10.3,26.8c-5.1,7.8-13.8,13.6-23.9,13.6
		c-3.5,0-9.8-1.2-12.2-2.4c0.4-1.7,0.4-1,1.5-2.3c2.2-2.7,7.8-9.3,10.1-11.1c3.7-2.9,6-5.4,1.6-7.8c-3.4,1.8-5.6,4.5-8.3,7.2
		c-1.6,1.6-2.4,2.4-3.8,4.2l-3.8,4.2c0-2.4-0.5-2.1-0.5-4.2C102.4,52.4,123,45,140.8,45z"/>
</g>
</svg>
