<?xml version="1.0" encoding="utf-8"?>
<!-- Generator: Adobe Illustrator 22.0.1, SVG Export Plug-In . SVG Version: 6.00 Build 0)  -->
<svg version="1.1" id="Capa_1" xmlns="http://www.w3.org/2000/svg" xmlns:xlink="http://www.w3.org/1999/xlink" x="0px" y="0px"
	 viewBox="0 0 200 200" style="enable-background:new 0 0 200 200;" xml:space="preserve">
<style type="text/css">
	.st0{fill:#2CD48F;}
</style>
<g>
	<path class="st0" d="M100,0C45,0,0.4,44.8,0.4,100S45,200,100,200c55,0,99.6-44.8,99.6-100S155,0,100,0z M100,194
		c-51.7,0-93.6-42.1-93.6-94C6.4,48.1,48.3,6,100,6s93.6,42.1,93.6,94C193.6,151.9,151.7,194,100,194z"/>
	<path class="st0" d="M87.3,132.9c-5.2-0.3-10-2.7-13.2-6.8c-6.6-8.6-4.4-22.5-4.4-22.6c0.2-1.3-0.7-2.6-2-2.8
		c-1.3-0.2-2.6,0.7-2.8,2c-0.1,0.7-2.6,16.1,5.3,26.5c4.1,5.2,10.1,8.4,16.7,8.7c0.1,0,0.2,0,0.2,0c1.3,0,2.4-1,2.5-2.4
		C89.6,134.2,88.6,133,87.3,132.9z"/>
	<path class="st0" d="M131.3,131.1V46.6c0-4.9-3.3-9.3-8-10.4c-3.1-0.7-6.4,0-8.9,2c-2.5,2-3.9,5-3.9,8.1v19.1
		c-8.1-11.7-16-20.5-16.7-21.3c-0.5-0.5-1.1-0.8-1.8-0.8c-0.7,0-1.4,0.3-1.8,0.8C88.7,45.9,54.9,84,54.9,108
		c0,25.6,13.2,39.8,37.1,39.8c2.4,0,4.7-0.1,6.9-0.4c-0.2,1.2-0.3,2.4-0.3,3.7c0.1,11.2,9.7,21.3,20.9,21.9c0.4,0,0.9,0,1.3,0
		c5.7,0,11.1-2.1,15.3-6.1c4.5-4.3,7-10,7-16.2C143.1,142.5,138.5,134.9,131.3,131.1z M92,142.8c-26.6,0-32.2-18.9-32.2-34.8
		c0-19.1,25.1-50,32.2-58.3c3.5,4.1,11.4,13.8,18.5,24.8v56.6c-4.6,2.4-8.2,6.4-10.1,11C97.8,142.6,95.1,142.8,92,142.8z M133.4,164
		c-3.7,3.5-8.5,5.2-13.6,4.9c-9-0.5-17.1-8.9-17.2-18c-0.1-7.2,4.1-13.9,10.7-16.9l1.2-0.5V46.4c0-2,0.9-3.8,2.4-5
		c1.1-0.9,2.5-1.4,3.9-1.4c0.5,0,1,0.1,1.5,0.2c2.8,0.7,4.9,3.4,4.9,6.5v86.9l1.2,0.5c6.5,3,10.7,9.5,10.7,16.6
		C139.1,155.8,137.1,160.5,133.4,164z"/>
	<path class="st0" d="M124.3,136.7V71.5h-6.9v65.2c-6.3,1.6-11,7.2-11,14c0,8,6.5,14.5,14.5,14.5s14.5-6.5,14.5-14.5
		C135.3,144,130.6,138.3,124.3,136.7z"/>
</g>
</svg>
