<?xml version="1.0" encoding="utf-8"?>
<!-- Generator: Adobe Illustrator 22.0.1, SVG Export Plug-In . SVG Version: 6.00 Build 0)  -->
<svg version="1.1" id="Capa_1" xmlns="http://www.w3.org/2000/svg" xmlns:xlink="http://www.w3.org/1999/xlink" x="0px" y="0px"
	 viewBox="0 0 200 200" style="enable-background:new 0 0 200 200;" xml:space="preserve">
<style type="text/css">
	.st0{fill:#2CD48F;}
</style>
<g>
	<path class="st0" d="M100,0C45,0,0.4,44.8,0.4,100S45,200,100,200s99.6-44.8,99.6-100S155,0,100,0z M100,194
		c-51.7,0-93.6-42.1-93.6-94C6.4,48.1,48.3,6,100,6s93.6,42.1,93.6,94C193.6,151.9,151.7,194,100,194z"/>
</g>
<path class="st0" d="M117.9,135.7c-1.2,0-2.2,1-2.2,2.2v12.8c0,1.2,1,2.2,2.2,2.2s2.2-1,2.2-2.2V138
	C120.1,136.7,119.1,135.7,117.9,135.7z"/>
<path class="st0" d="M142.1,149c-6.1-4.3-6.2-10.7-6.2-11c0-1.2-1-2.2-2.2-2.2s-2.2,1-2.2,2.2c0,0.4,0.1,9,8.1,14.7
	c0.4,0.3,0.8,0.4,1.3,0.4c0.7,0,1.4-0.3,1.8-0.9C143.4,151.1,143.1,149.7,142.1,149z"/>
<path class="st0" d="M100.6,135.7c-1.2,0-2.2,1-2.2,2.2v12.8c0,1.2,1,2.2,2.2,2.2s2.2-1,2.2-2.2V138
	C102.8,136.7,101.8,135.7,100.6,135.7z"/>
<path class="st0" d="M82.1,135.7c-1.2,0-2.2,1-2.2,2.2v12.8c0,1.2,1,2.2,2.2,2.2s2.2-1,2.2-2.2V138
	C84.3,136.7,83.3,135.7,82.1,135.7z"/>
<path class="st0" d="M66.3,135.7c-1.2,0-2.2,1-2.2,2.2c0,0.1-0.1,6.7-6.2,11c-1,0.7-1.2,2.1-0.5,3.1c0.4,0.6,1.1,0.9,1.8,0.9
	c0.4,0,0.9-0.1,1.3-0.4c8-5.7,8.1-14.3,8.1-14.6C68.5,136.7,67.5,135.7,66.3,135.7z"/>
<path class="st0" d="M140.6,79.3c1.2,0,2.2-1,2.2-2.2s-1-2.2-2.2-2.2H98.7c-1.2,0-2.2,1-2.2,2.2s1,2.2,2.2,2.2H140.6z"/>
<path class="st0" d="M157.2,79.3c1.2,0,2.2-1,2.2-2.2s-1-2.2-2.2-2.2h-6.5c-1.2,0-2.2,1-2.2,2.2s1,2.2,2.2,2.2H157.2z"/>
<path class="st0" d="M164.7,61.2H60.5c-1.2,0-2.2,1-2.2,2.2c0,1.2,1,2.2,2.2,2.2h104.2c3.4,0,6.2,2.8,6.2,6.2v47.3
	c0,3.4-2.8,6.2-6.2,6.2h-5.3v-14.5c0-1.2-1-2.2-2.2-2.2H42.8c-1.2,0-2.2,1-2.2,2.2v14.5h-5.3c-3.4,0-6.2-2.8-6.2-6.2V71.9
	c0-3.4,2.8-6.2,6.2-6.2h16.4c1.2,0,2.2-1,2.2-2.2s-1-2.2-2.2-2.2H35.3c-5.8,0-10.6,4.8-10.6,10.6v47.3c0,5.9,4.8,10.6,10.6,10.6h23
	c1.2,0,2.2-1,2.2-2.2s-1-2.2-2.2-2.2H45v-3.9h87.9c1.2,0,2.2-1,2.2-2.2s-1-2.2-2.2-2.2H45v-3.9h110v3.9h-13.3c-1.2,0-2.2,1-2.2,2.2
	s1,2.2,2.2,2.2H155v3.9H67.1c-1.2,0-2.2,1-2.2,2.2s1,2.2,2.2,2.2h97.6c5.8,0,10.6-4.8,10.6-10.6V71.9
	C175.3,66,170.6,61.2,164.7,61.2z"/>
</svg>
