<svg width="240px" height="78px" viewBox="-503 1536 240 78" version="1.1" xmlns="http://www.w3.org/2000/svg" xmlns:xlink="http://www.w3.org/1999/xlink">
    <defs>
        <polyline id="path-1" points="0 0.350632619 239.248012 0.350632619 239.248012 77.3087567 0 77.3087567"></polyline>
        <polygon id="path-3" points="0 0.350632619 239.248012 0.350632619 239.248012 77.3087567 0 77.3087567"></polygon>
    </defs>
    <g id="LOGO-ISTOE-Copy-17" stroke="none" stroke-width="1" fill="none" fill-rule="evenodd" transform="translate(-503.000000, 1536.000000)">
        <g id="Group-3">
            <mask id="mask-2" fill="white">
                <use xlink:href="#path-1"></use>
            </mask>
            <g id="Clip-2"></g>
            <path d="M154.685164,59.9474045 C144.817437,59.9474045 136.818113,51.9486914 136.818113,42.0811015 C136.818113,32.2130128 144.817437,24.2138009 154.685164,24.2138009 C164.553391,24.2138009 172.552216,32.2130128 172.552216,42.0811015 C172.552216,51.9486914 164.553391,59.9474045 154.685164,59.9474045 M65.288557,53.1557056 C67.23876,54.4076087 68.2168542,56.0395716 68.164483,58.3568392 C68.1031339,61.049179 66.328499,63.9958896 60.5157968,63.8637165 C55.1310419,63.74102 50.1747331,58.5523556 48.0699104,53.7068422 L34.0209672,53.7068422 L34.0209672,62.2726524 L24.1088485,62.2726524 L24.1088485,22.1339459 L31.8518028,22.1284595 C31.9904617,22.1284595 30.9096203,25.4307903 31.0228418,28.742099 C31.2063903,34.1262798 33.1655713,39.437142 37.7537854,42.5703911 C50.2969326,51.1367001 57.9456188,48.4443603 65.288557,53.1557056 M154.685164,7.93806314 C147.959209,7.93806314 141.614315,9.84235239 136.328318,13.2000463 L136.328318,8.42785152 L68.7759789,8.42785152 L68.7759789,12.3436647 C68.7759789,12.3436647 67.1240422,10.6912524 60.4544477,8.67224695 C50.7957057,5.74798088 38.4879795,8.18295733 32.3076815,21.2157174 L32.3076815,8.42785152 L0.000149631939,8.42785152 L0.000149631939,22.1339459 L7.46528732,22.1339459 L7.46528732,62.2726524 L0.000149631939,62.2726524 L0.000149631939,75.9792456 L46.9930592,75.9792456 L46.9930592,72.736268 C52.2551159,76.2849893 58.2867796,77.5757961 65.8392026,77.2640673 C79.1783916,76.7134294 86.000112,67.0782645 85.7866371,56.3986832 C85.5417394,44.1614552 72.1786093,39.5723076 67.1853913,37.8590458 C60.919803,35.4111015 55.0088425,35.2894025 50.6031793,31.0059986 C48.7941291,29.2473491 48.6449959,27.5181268 49.3796887,25.804865 C50.4011761,23.4207627 53.6297347,21.8486517 56.9056767,22.1339459 C59.7207524,22.3783414 65.7165044,25.3764248 68.2866824,32.6579122 L84.9297448,32.6579122 L84.9297448,22.1339459 L94.4752653,22.1339459 L94.4752653,52.8255224 L94.4752653,61.9295013 L87.0106264,61.9295013 L87.0106264,76.1867323 L110.62953,76.1867323 L119.13461,76.1867323 L119.13461,71.1072976 L119.13461,61.9295013 L118.155518,61.9295013 L110.62953,61.9295013 L110.62953,52.7272654 L110.62953,22.1339459 L120.541649,22.1339459 L120.541649,42.0811015 C120.541649,60.9364579 135.828048,76.2246386 154.685164,76.2246386 C173.542281,76.2246386 188.82868,60.9379542 188.82868,42.0811015 C188.82868,23.2242488 173.542281,7.93806314 154.685164,7.93806314" id="Fill-1" fill="#D00018" mask="url(#mask-2)"></path>
        </g>
        <g id="Group-6">
            <mask id="mask-4" fill="white">
                <use xlink:href="#path-3"></use>
            </mask>
            <g id="Clip-5"></g>
            <polygon id="Fill-4" fill="#D00018" mask="url(#mask-4)" points="239.248161 33.5144932 239.248161 8.42755226 219.239378 8.42755226 224.501435 0.350532866 212.997731 0.350532866 207.796524 8.42755226 184.05592 8.42755226 184.05592 21.7665548 191.39836 21.7665548 191.39836 62.0898048 184.05592 62.0898048 184.05592 75.9789464 239.248161 75.9789464 239.248161 51.1368996 223.093897 51.1368996 223.093897 62.0898048 207.796524 62.0898048 207.796524 49.9129274 218.321635 49.9129274 218.321635 34.5549194 207.796524 34.5549194 207.796524 21.7665548 223.093897 21.7665548 223.093897 33.5144932"></polygon>
        </g>
    </g>
</svg>