<?xml version="1.0" encoding="utf-8"?>
<!-- Generator: Adobe Illustrator 22.0.1, SVG Export Plug-In . SVG Version: 6.00 Build 0)  -->
<svg version="1.1" id="Capa_1" xmlns="http://www.w3.org/2000/svg" xmlns:xlink="http://www.w3.org/1999/xlink" x="0px" y="0px"
	 viewBox="0 0 200 200" style="enable-background:new 0 0 200 200;" xml:space="preserve">
<style type="text/css">
	.st0{fill:#2CD48F;}
</style>
<g>
	<path class="st0" d="M76.3,31.2c-0.4-0.5-1.1-0.7-1.7-0.7c-0.6,0-1.3,0.3-1.7,0.7C71.5,32.7,40,68.3,40,90.7
		c0,23.9,12.3,37.1,34.6,37.1c22.3,0,34.6-13.2,34.6-37.1C109.2,68.3,77.6,32.7,76.3,31.2z M74.6,123.2c-24.8,0-30-17.7-30-32.5
		c0-17.8,23.4-46.6,30-54.4c6.6,7.8,30,36.6,30,54.4C104.6,105.5,99.4,123.2,74.6,123.2z"/>
</g>
<g>
	<path class="st0" d="M100,0C45,0,0.4,44.8,0.4,100S45,200,100,200s99.6-44.8,99.6-100S155,0,100,0z M100,194
		c-51.7,0-93.6-42.1-93.6-94C6.4,48.1,48.3,6,100,6s93.6,42.1,93.6,94C193.6,151.9,151.7,194,100,194z"/>
</g>
<path class="st0" d="M105.6,155.9c-0.7-0.3-1.3-0.9-1.5-1.6c-0.2-0.7-0.2-1.6,0.2-2.2c0.6-1.1,0.1-2.5-1-3.1s-2.5-0.1-3.1,1
	c-1,1.8-1.1,3.9-0.5,5.8c0.6,1.9,2,3.5,3.8,4.3c1.1,0.6,2.5,0.1,3.1-1C107.3,157.9,106.8,156.5,105.6,155.9L105.6,155.9z"/>
<path class="st0" d="M136.9,123.2c4.3-0.1,8.3-1.8,11.3-4.9c2.6-3.3,3.5-7.6,2.5-11.7c-0.2-1.2-1.4-2.1-2.7-1.8
	c-1.2,0.2-2.1,1.4-1.9,2.6c0.7,2.7,0.2,5.7-1.5,7.9c-2.1,2-4.9,3.2-7.8,3.3c-1.3,0-2.3,1-2.3,2.3
	C134.6,122.1,135.7,123.2,136.9,123.2z"/>
<path class="st0" d="M69.8,118.5c0.1,0,0.2,0,0.2,0c1.2,0,2.2-1,2.3-2.2c0.1-1.2-0.9-2.3-2.1-2.4c-4.8-0.2-9.3-2.5-12.3-6.3
	c-6.1-8-4.1-21-4.1-21.1c0.2-1.2-0.7-2.4-1.9-2.6s-2.4,0.6-2.6,1.8c-0.1,0.6-2.4,15,5,24.7C58,115.2,63.6,118.2,69.8,118.5z"/>
<g>
	<path class="st0" d="M108.8,124c-0.5-0.5-1.1-0.7-1.7-0.7c-0.8-0.1-1.5,0.2-1.9,0.7c-0.6,0.7-14.4,16.5-14.4,27
		c0,11.8,5.9,18.5,16.2,18.5s16.2-6.8,16.2-18.5C123.2,140.5,109.4,124.6,108.8,124z M106.9,164.9c-7.7,0-11.5-4.7-11.5-13.9
		c0-6.3,7.2-16.6,11.5-21.9c4.3,5.3,11.5,15.6,11.5,21.9C118.5,160.2,114.6,164.9,106.9,164.9z"/>
</g>
<g>
	<path class="st0" d="M141,72.8c-0.4-0.5-1.1-0.7-1.7-0.7c-0.6,0-1.2,0.3-1.7,0.7c-0.8,0.8-19.1,20.8-19.1,35.3
		c0,15.5,7.5,24.3,20.8,24.3c13.2,0,20.8-8.9,20.8-24.3C160.1,93.6,141.8,73.7,141,72.8z M139.3,127.8c-10.7,0-16.2-6.6-16.2-19.6
		c0-10.4,11.7-25,16.2-30.2c4.5,5.2,16.2,19.9,16.2,30.2C155.5,121.2,150.1,127.8,139.3,127.8z"/>
</g>
</svg>
