<?xml version="1.0" encoding="utf-8"?>
<!-- Generator: Adobe Illustrator 22.0.1, SVG Export Plug-In . SVG Version: 6.00 Build 0)  -->
<svg version="1.1" id="Capa_1" xmlns="http://www.w3.org/2000/svg" xmlns:xlink="http://www.w3.org/1999/xlink" x="0px" y="0px"
	 viewBox="0 0 200 200" style="enable-background:new 0 0 200 200;" xml:space="preserve">
<style type="text/css">
	.st0{fill:#2CD48F;}
</style>
<g>
	<path class="st0" d="M100,0C45,0,0.4,44.8,0.4,100S45,200,100,200s99.6-44.8,99.6-100S155,0,100,0z M100,194
		c-51.7,0-93.6-42.1-93.6-94C6.4,48.1,48.3,6,100,6s93.6,42.1,93.6,94C193.6,151.9,151.7,194,100,194z"/>
</g>
<g>
	<path class="st0" d="M166.4,134.3l-23.4-71c-0.5-1.6-2-2.7-3.7-2.7H60.7c-1.7,0-3.2,1.1-3.7,2.7l-23.4,71c-0.1,0.4-0.2,0.8-0.2,1.2
		v0.1c0,0.8,0.3,1.6,0.7,2.3c0.7,1,1.9,1.6,3.2,1.6h125.4c1.3,0,2.4-0.6,3.2-1.6c0.5-0.7,0.7-1.5,0.7-2.3v-0.1
		C166.6,135,166.5,134.6,166.4,134.3z M103.9,68.3h32.6l7.8,23.8h-40.4V68.3z M96.1,131.5H42.7L53.1,100h43V131.5z M96.1,92.1H55.7
		l7.8-23.8h32.6V92.1z M103.9,131.5V100h43l10.4,31.6H103.9z"/>
</g>
</svg>
